Full Credits To Feel Free :)

 ######## ######## ######## ##          ######## ########  ######## ######## 
 ##       ##       ##       ##          ##       ##     ## ##       ##       
 ##       ##       ##       ##          ##       ##     ## ##       ##       
 ######   ######   ######   ##          ######   ########  ######   ######   
 ##       ##       ##       ##          ##       ##   ##   ##       ##       
 ##       ##       ##       ##          ##       ##    ##  ##       ##       
 ##       ######## ######## ########    ##       ##     ## ######## ########

Genre:Adventure | Comedy | Thriller 
 Language:English
 IMDb: 
http://www.imdb.com/title/tt1634122/
 Source:RELiZLAB/FURY Thanks!

 Format : MPEG-4
 Format profile : Base Media
 Codec ID : isom
 File size : 1.16 GiB
 Duration : 1h 35mn
 Overall bit rate : 1 735 Kbps

 Video
 ID : 1
 Format : AVC
 Format/Info : Advanced Video Codec
 Format profile : High@L4.1
 Format settings, CABAC : Yes
 Format settings, ReFrames : 3 frames
 Format settings, GOP : N=1
 Codec ID : avc1
 Codec ID/Info : Advanced Video Coding
 Duration : 1h 35mn
 Bit rate mode : Variable
 Bit rate : 1 500 Kbps
 Maximum bit rate : 5 219 Kbps
 Width : 672 pixels
 Height : 280 pixels
 Display aspect ratio : 2.40:1
 Frame rate mode : Constant
 Frame rate : 25.000 fps
 Color space : YUV
 Chroma subsampling : 4:2:0
 Bit depth : 8 bits
 Scan type : Progressive
 Bits/(Pixel*Frame) : 0.319
 Stream size : 1.00 GiB (87%)
 Writing library : x264


 Audio
 ID : 2
 Format : AAC
 Format/Info : Advanced Audio Codec
 Format version : Version 4
 Format profile : LC
 Format settings, SBR : No
 Codec ID : 40
 Duration : 1h 35mn
 Bit rate mode : Variable
 Bit rate : 224 Kbps
 Maximum bit rate : 275 Kbps
 Channel(s) : 2 channels
 Channel positions : Front: L R
 Sampling rate : 48.0 KHz
 Stream size : 153 MiB (13%)

 Plot:
 Johnny English goes up against international assassins hunting down the Chinese premier

Greets:

 INK,CRYS,IMAGINE,LKRG,FXG,3Li,FLAWL3SS,TA,iLLUSiON,ViSiON,DTRG 
 SAFCuk009,LU,TheFalcon007,MYSTiC,PrisM,Noir,WBZ,LAP,Rx,Kingdom,SAFCuk009+Fabreezy,
 HDLiTE,TWiZTED,ExtraTorrentRG.ELEKTRI4KA,MAGNAT,CM8
 And to all the other p2p grps past and present






==================================                                                     
http://thepiratebay.org/user/hiest
==================================






Screenshots:
 
http://www.pix2links.com/images/19279898583875634036.png
 
http://www.pix2links.com/images/90472869927841692959.png
 
http://www.pix2links.com/images/46034346689067049138.png
 
http://www.pix2links.com/images/46553074322393464157.png

Full Credits To Feel Free :)

 ######## ######## ######## ##          ######## ########  ######## ######## 
 ##       ##       ##       ##          ##       ##     ## ##       ##       
 ##       ##       ##       ##          ##       ##     ## ##       ##       
 ######   ######   ######   ##          ######   ########  ######   ######   
 ##       ##       ##       ##          ##       ##   ##   ##       ##       
 ##       ##       ##       ##          ##       ##    ##  ##       ##       
 ##       ######## ######## ########    ##       ##     ## ######## ########